<?xml version="1.0" encoding="UTF-8"?>
<svg xmlns="http://www.w3.org/2000/svg" viewBox="0 0 24 24" fill="none" stroke="#0066cc" stroke-width="1.5" stroke-linecap="round" stroke-linejoin="round">
  <!-- Base shape -->
  <path d="M12 6.253v13m0-13C10.832 5.477 9.246 5 7.5 5S4.168 5.477 3 6.253v13C4.168 18.477 5.754 18 7.5 18s3.332.477 4.5 1.253m0-13C13.168 5.477 14.754 5 16.5 5c1.747 0 3.332.477 4.5 1.253v13c-1.168-.776-2.754-1.253-4.5-1.253-1.746 0-3.332.477-4.5 1.253" fill="#f0f4f8" stroke="#0066cc" stroke-width="1.5" />
  
  <!-- Bookmark -->
  <path d="M16 3h1a2 2 0 0 1 2 2v.5" stroke="#0066cc" stroke-width="1.5" />
  
  <!-- Laser beam effect -->
  <path d="M19 8l-7 4l-7-4" stroke="#FF4500" stroke-width="1.5" opacity="0.8" />
  <circle cx="12" cy="12" r="0.5" fill="#FF4500" opacity="0.9" />
  <path d="M12 11v6" stroke="#FF4500" stroke-width="1" opacity="0.6" stroke-dasharray="1,1" />
</svg>
